<?xml version="1.0" encoding="UTF-8" standalone="no"?>
<svg
   viewBox="0 0 132.29166 132.29167"
   version="1.1"
   width="1em"
   height="1em"
   xmlns="http://www.w3.org/2000/svg"><path
       fill="currentcolor"
       d="m 61.481548,129.63439 c -12.717426,-0.85603 -25.511464,-5.73956 -34.688365,-13.24065 -1.05276,-0.86051 -1.975494,-1.56457 -2.050521,-1.56457 -0.07503,0 -0.136411,1.89836 -0.136411,4.21858 0,4.00238 -0.03051,4.25249 -0.595313,4.88026 -0.857532,0.95313 -2.24518,1.02525 -3.108854,0.16158 -0.503868,-0.50387 -0.529167,-0.88195 -0.529167,-7.90819 0,-6.86922 0.03492,-7.42218 0.505445,-8.00365 l 0.505444,-0.62462 7.308109,-0.0782 7.308109,-0.0781 0.785405,0.7854 c 1.015924,1.01593 1.019731,1.95541 0.01201,2.96313 l -0.773401,0.7734 -3.922958,0.01 -3.922956,0.01 1.058333,0.91922 c 2.141167,1.85972 6.625984,4.68119 10.457204,6.57879 8.027369,3.97595 16.653815,5.97587 25.77623,5.97587 15.960067,0 29.92712,-5.27515 41.091189,-15.51955 2.21308,-2.03078 2.69683,-2.31298 3.83632,-2.238 0.83044,0.0546 1.52135,1.01447 1.52135,2.1135 0,0.92851 -0.18019,1.1955 -1.91951,2.84427 -10.692426,10.13571 -24.295478,15.96454 -39.752365,17.03365 -4.046321,0.27987 -4.437603,0.27933 -8.765329,-0.012 z M 11.061376,93.119606 C 7.6824678,92.608011 4.1078699,89.750691 2.8976943,86.594047 0.27873604,79.762709 4.6685564,70.403777 12.759452,65.569149 l 1.779245,-1.063167 1.410992,1.205447 c 2.028121,1.732679 4.245904,2.996247 6.672187,3.801441 1.858759,0.616855 2.551884,0.704022 5.688541,0.715396 3.077705,0.01116 3.828114,-0.07355 5.423959,-0.612293 2.71268,-0.915776 5.302673,-2.339931 6.884321,-3.785468 0.765577,-0.699694 1.508815,-1.27217 1.65164,-1.27217 0.142827,0 1.1923,0.608817 2.332159,1.352926 6.307299,4.117448 9.885781,10.057291 9.944378,16.506449 0.01672,1.839193 -0.10701,2.712506 -0.543501,3.836459 -1.137137,2.928088 -3.376145,5.178351 -6.378372,6.410439 -1.45384,0.596643 -1.471014,0.597246 -18.25625,0.640138 -9.240573,0.0236 -17.478892,-0.0597 -18.307375,-0.18514 z m 75.66596,0.01505 c -3.228356,-0.414179 -6.532464,-2.868684 -8.01552,-5.954448 -0.646385,-1.344922 -0.7796,-1.994239 -0.871794,-4.249309 -0.135327,-3.310083 0.294574,-5.183859 1.948542,-8.492969 1.555941,-3.112976 4.267309,-6.085284 7.560382,-8.287986 1.308716,-0.875387 2.531822,-1.591611 2.718014,-1.591611 0.18619,0 0.565341,0.252248 0.842555,0.560549 0.947915,1.054213 3.75533,2.885958 5.570117,3.634316 2.941413,1.21294 4.456118,1.495417 7.898498,1.472994 2.73078,-0.01778 3.47114,-0.12173 5.29166,-0.742889 2.46741,-0.841875 5.03892,-2.299253 6.80883,-3.858837 l 1.25258,-1.103723 1.31606,0.716291 c 3.80025,2.068356 7.62006,6.106919 9.37013,9.906744 1.3326,2.89338 1.58432,4.03412 1.60592,7.277552 0.0184,2.761483 -0.0249,3.004032 -0.82589,4.633011 -1.619,3.292377 -4.69061,5.564984 -8.20916,6.073762 -2.06107,0.298026 -31.944441,0.303744 -34.260924,0.0066 z M 24.633934,65.727127 C 23.848796,65.515992 22.647671,65.039141 21.964769,64.66746 14.89769,60.821071 12.427423,53.150631 15.901941,45.841739 c 1.683236,-3.540805 5.799797,-6.791156 9.468027,-7.475758 8.275378,-1.544434 15.780086,3.81498 16.954508,12.107892 0.972135,6.864517 -3.631835,13.421183 -10.720605,15.267575 -1.922867,0.500844 -5.078333,0.494359 -6.969937,-0.01431 z m 76.172316,0.02142 c -2.704322,-0.61269 -4.937406,-1.850255 -6.883974,-3.815069 -2.659412,-2.684338 -3.96394,-5.912985 -3.96394,-9.81056 0,-10.192025 9.987788,-16.695696 19.680724,-12.815343 3.4256,1.371357 6.33027,4.515816 7.60665,8.234593 0.87318,2.544024 0.87798,6.603908 0.0108,9.129054 -1.46868,4.276643 -4.63108,7.420777 -8.74165,8.691153 -2.30146,0.711268 -5.55439,0.874228 -7.70861,0.386172 z M 20.948204,23.729302 c -0.36176,-0.385076 -0.575287,-0.952054 -0.575287,-1.527561 0,-0.793065 0.273639,-1.182153 2.050521,-2.915644 2.815499,-2.746744 4.454245,-4.071842 8.003646,-6.471787 C 33.762456,10.559081 40.58056,7.1285615 44.317709,5.8252615 58.423251,0.90606845 74.960471,0.96295077 88.553607,5.9774176 94.363029,8.1204956 101.62258,12.23422 105.96563,15.844184 l 1.5875,1.319538 0.13229,-4.342063 c 0.12324,-4.0448737 0.17263,-4.3823461 0.72172,-4.9306112 0.79312,-0.7919249 2.26171,-0.7917212 3.05447,4.234e-4 0.57445,0.5739976 0.59145,0.7619034 0.66867,7.3910718 0.0436,3.741155 0.0108,7.074834 -0.0729,7.408175 -0.0837,0.333341 -0.38721,0.841172 -0.67455,1.128512 -0.49493,0.494924 -0.90654,0.522437 -7.81588,0.522437 -4.251461,0 -7.495277,-0.108024 -7.777376,-0.258998 -0.666305,-0.356596 -1.10798,-1.72009 -0.810572,-2.502326 0.489527,-1.287558 1.144595,-1.471155 5.290778,-1.482861 l 3.84373,-0.01085 -1.19062,-1.079043 C 99.310105,15.733353 91.638768,11.602838 85.325415,9.532476 69.652967,4.392951 52.125754,5.8273192 37.835418,13.418898 c -4.765067,2.531386 -8.07434,4.921375 -12.513244,9.037182 -2.300888,2.133412 -3.294221,2.422562 -4.37397,1.273222 z"
       id="path360" /></svg>
